<?xml version="1.0" encoding="UTF-8" standalone="no"?>
<!DOCTYPE svg PUBLIC "-//W3C//DTD SVG 1.1//EN" "http://www.w3.org/Graphics/SVG/1.1/DTD/svg11.dtd">
<svg xmlns="http://www.w3.org/2000/svg" version="1.1" viewBox="0.00 0.00 1000.00 1000.00">
<path fill="#000000" d="
  M 326.01 540.80
  A 0.59 0.59 0.0 0 0 327.14 540.54
  L 326.86 529.18
  A 13.09 13.03 -52.0 0 0 326.56 526.69
  C 325.83 523.26 325.28 521.16 325.21 518.12
  Q 324.94 505.97 324.93 505.62
  C 324.78 500.19 323.37 495.09 323.32 490.00
  Q 323.24 480.12 322.39 473.88
  C 321.28 465.73 321.18 458.69 321.01 450.26
  C 320.87 443.63 319.25 438.45 319.25 431.61
  Q 319.24 418.65 318.02 409.40
  C 316.72 399.59 317.41 389.29 316.08 379.41
  C 314.91 370.77 315.41 362.79 314.32 353.71
  C 313.14 344.00 313.19 333.04 312.27 324.75
  C 311.23 315.46 311.41 309.20 310.39 300.43
  Q 308.94 287.89 309.14 279.00
  Q 309.24 274.14 312.41 269.92
  C 324.03 254.45 337.62 235.98 347.08 223.56
  Q 373.19 189.26 398.23 155.48
  C 404.28 147.32 413.59 135.54 421.81 124.42
  Q 427.98 116.08 434.74 107.17
  Q 440.53 99.53 442.34 96.96
  C 445.61 92.31 449.85 87.25 452.68 83.49
  Q 467.81 63.35 489.25 34.27
  C 491.44 31.30 496.16 26.44 500.08 25.39
  C 511.72 22.28 517.12 31.62 522.99 39.29
  C 526.98 44.51 530.15 49.83 533.94 54.26
  C 538.06 59.06 541.48 64.50 545.83 69.96
  Q 548.80 73.70 552.17 78.35
  Q 579.90 116.63 621.46 173.18
  C 624.16 176.85 626.40 180.22 629.84 184.38
  Q 632.19 187.21 639.28 197.49
  C 642.74 202.50 646.42 206.99 649.42 211.41
  Q 652.70 216.25 656.99 221.77
  C 661.63 227.75 666.03 232.63 667.77 238.99
  Q 668.05 240.01 667.85 246.37
  Q 667.76 249.21 666.91 252.58
  C 665.80 257.01 665.79 262.00 664.72 266.12
  C 663.93 269.18 663.87 272.05 663.25 275.91
  Q 660.84 290.66 659.96 297.78
  Q 659.39 302.41 658.70 305.17
  C 657.84 308.58 657.96 311.67 657.09 315.02
  C 655.94 319.43 655.82 324.47 654.77 328.61
  C 653.86 332.23 653.96 335.22 653.09 338.94
  Q 652.21 342.71 651.70 349.47
  A 13.16 12.76 -37.4 0 1 651.39 351.55
  C 650.23 356.57 650.03 360.87 648.97 365.43
  C 647.93 369.90 648.22 374.18 647.06 378.15
  C 645.86 382.25 645.81 387.52 644.76 392.30
  C 644.01 395.70 643.95 398.59 643.17 402.51
  Q 641.72 409.78 639.62 423.21
  C 639.31 425.20 638.67 427.33 638.40 429.20
  Q 636.60 441.68 635.03 449.54
  C 634.21 453.62 633.93 458.18 632.70 462.27
  A 9.53 9.47 -34.5 0 0 632.32 464.29
  L 631.71 472.40
  A 2.28 2.06 -35.8 0 1 631.58 473.01
  Q 629.78 477.86 630.22 482.98
  A 0.67 0.67 0.0 0 0 631.24 483.49
  Q 639.49 478.28 646.28 474.27
  Q 689.19 448.93 728.39 426.41
  Q 740.70 419.34 753.60 411.47
  C 768.96 402.11 787.27 392.15 804.98 382.03
  Q 829.89 367.78 832.15 366.40
  C 837.94 362.85 842.57 361.75 848.10 364.71
  C 852.35 366.97 853.58 371.76 854.80 376.82
  C 855.69 380.49 856.17 383.87 856.90 386.99
  Q 865.00 421.38 868.72 437.77
  C 872.17 452.92 879.43 481.04 884.18 502.66
  Q 886.18 511.80 889.85 526.42
  Q 890.10 527.44 898.90 565.59
  C 900.22 571.28 900.25 577.48 897.99 582.70
  Q 897.49 583.84 895.48 586.41
  C 883.57 601.65 872.86 615.98 862.65 629.87
  Q 857.49 636.89 850.69 645.88
  Q 823.09 682.36 808.29 702.54
  C 806.63 704.80 804.67 706.98 803.17 709.07
  Q 793.55 722.51 788.17 729.25
  C 782.24 736.68 778.59 742.05 773.12 748.87
  C 770.15 752.58 770.90 758.64 770.68 764.54
  C 770.53 768.42 769.32 770.91 769.13 774.73
  C 768.88 779.99 768.95 784.08 768.09 788.77
  C 766.72 796.23 767.24 803.59 765.92 811.11
  Q 764.94 816.72 764.87 825.52
  A 3.49 3.35 52.0 0 1 764.80 826.21
  L 762.71 836.84
  A 2.80 2.77 67.9 0 1 762.28 837.87
  Q 759.80 841.55 755.17 845.17
  Q 740.58 856.60 734.87 861.14
  Q 722.77 870.75 712.64 878.17
  Q 706.67 882.54 702.67 885.70
  C 698.28 889.17 693.02 892.58 689.20 895.53
  C 671.56 909.09 654.18 922.41 636.62 935.17
  Q 625.29 943.40 615.10 951.36
  Q 605.36 958.98 594.37 962.09
  Q 578.01 966.73 564.44 971.14
  Q 556.61 973.68 534.45 979.93
  Q 519.04 984.27 502.02 989.54
  Q 498.82 990.53 493.02 991.09
  Q 485.32 991.84 480.38 987.48
  Q 463.50 972.58 448.20 956.48
  A 3.46 3.45 67.5 0 0 445.60 955.40
  C 439.00 955.58 432.74 954.18 426.08 953.91
  Q 416.19 953.52 404.75 953.53
  Q 402.87 953.53 394.12 952.32
  A 28.13 27.96 47.6 0 0 389.00 952.07
  C 384.04 952.27 378.85 951.58 372.94 951.54
  C 367.70 951.51 363.06 950.53 358.26 950.57
  Q 355.40 950.59 350.78 950.17
  C 341.13 949.29 331.24 949.96 322.69 948.96
  C 312.01 947.71 303.83 947.65 292.54 947.53
  C 286.65 947.46 280.87 946.94 275.58 945.44
  C 271.00 944.14 267.21 938.08 264.71 933.54
  Q 212.17 838.19 206.38 827.58
  C 196.39 809.26 185.77 791.22 175.74 772.37
  C 166.86 755.69 155.21 735.70 147.59 721.30
  Q 142.93 712.49 135.91 700.08
  C 130.55 690.60 121.75 673.80 114.40 661.39
  C 109.86 653.71 105.25 644.86 101.40 638.00
  C 90.99 619.44 80.67 600.60 69.90 581.89
  Q 65.53 574.31 63.94 567.32
  C 63.37 564.84 64.50 562.11 65.13 559.39
  Q 66.73 552.52 68.92 544.69
  Q 81.55 499.59 84.07 489.88
  Q 87.79 475.58 89.41 469.68
  Q 99.58 432.78 108.41 401.63
  C 109.39 398.21 111.21 392.91 113.98 390.92
  C 118.49 387.70 124.66 389.27 129.43 391.57
  Q 150.40 401.68 174.75 413.08
  Q 191.00 420.69 199.70 425.14
  C 210.72 430.78 221.70 435.45 232.97 441.15
  Q 244.37 446.92 273.13 460.61
  C 277.69 462.78 282.31 464.64 285.51 468.49
  Q 289.35 473.09 292.37 478.67
  C 303.03 498.31 306.39 504.69 315.34 520.26
  Q 322.02 531.88 326.01 540.80
  Z
  M 459.49 378.80
  Q 463.07 375.29 470.52 366.52
  Q 486.33 347.88 508.91 322.66
  Q 511.53 319.72 514.79 315.58
  C 516.64 313.21 517.72 311.01 517.35 308.24
  Q 515.60 295.13 515.35 282.87
  C 515.21 276.23 514.61 268.88 514.08 264.41
  C 513.20 257.09 513.67 246.38 512.36 238.33
  Q 511.39 232.35 511.41 226.39
  Q 511.45 218.18 510.23 207.43
  Q 509.42 200.28 509.36 194.51
  Q 509.29 186.17 508.43 181.41
  Q 507.31 175.22 507.41 169.78
  Q 507.54 162.41 505.99 150.66
  C 505.32 145.55 505.40 139.08 505.19 133.19
  C 505.01 128.10 503.68 122.87 503.52 117.75
  Q 503.31 111.18 502.92 107.26
  C 502.18 99.80 501.41 95.12 501.44 88.90
  C 501.46 82.08 499.49 74.65 499.43 68.04
  Q 499.31 56.61 499.27 55.10
  A 0.59 0.59 0.0 0 0 498.29 54.68
  C 495.45 57.17 493.85 60.37 491.30 63.71
  Q 467.09 95.49 443.03 127.55
  Q 428.32 147.15 413.03 167.55
  Q 398.67 186.70 398.37 187.10
  Q 391.65 196.24 375.56 217.27
  Q 368.06 227.07 358.96 239.19
  Q 346.03 256.42 342.28 261.06
  Q 336.49 268.23 331.21 275.26
  A 1.19 1.19 0.0 0 0 331.45 276.92
  Q 335.16 279.69 344.90 287.02
  Q 347.77 289.18 357.92 297.74
  Q 364.76 303.51 372.60 309.37
  C 374.20 310.57 375.85 312.17 377.80 313.76
  Q 394.67 327.51 428.54 354.20
  Q 440.93 363.97 441.83 364.69
  C 447.59 369.28 453.80 373.25 458.55 378.76
  A 0.65 0.64 47.4 0 0 459.49 378.80
  Z
  M 534.21 304.53
  Q 535.24 303.67 547.92 295.94
  Q 598.55 265.07 637.81 242.14
  C 640.74 240.43 643.38 239.41 645.93 238.10
  A 1.27 1.26 55.3 0 0 646.28 236.13
  Q 644.80 234.50 643.31 232.56
  Q 617.48 198.94 561.06 121.30
  Q 550.10 106.22 542.12 95.59
  Q 530.72 80.40 523.31 70.07
  C 521.60 67.67 519.07 64.79 517.11 62.26
  A 0.60 0.60 0.0 0 0 516.04 62.73
  L 516.91 67.56
  A 1.40 0.95 -60.8 0 1 516.93 67.79
  Q 517.12 75.56 517.24 80.51
  C 517.35 84.98 518.74 90.04 518.92 94.09
  Q 519.03 96.60 519.38 106.18
  C 519.60 112.34 521.03 117.85 521.14 124.11
  Q 521.29 132.35 521.52 136.00
  C 521.75 139.60 522.86 144.99 522.98 149.02
  Q 523.21 156.67 524.93 176.75
  C 525.44 182.79 525.23 191.03 526.02 198.41
  C 527.28 210.22 527.00 221.71 528.61 233.54
  Q 528.99 236.31 529.03 242.98
  Q 529.08 250.73 529.92 257.62
  C 531.19 268.18 531.04 279.64 532.16 288.99
  C 532.80 294.42 532.36 299.21 533.27 304.18
  A 0.58 0.58 0.0 0 0 534.21 304.53
  Z
  M 649.43 255.27
  Q 643.12 258.61 637.13 262.52
  C 619.91 273.77 601.90 283.92 581.48 296.00
  Q 545.49 317.28 532.06 325.58
  Q 527.86 328.17 525.35 331.10
  Q 498.90 361.94 495.83 365.43
  C 490.78 371.16 486.04 375.95 481.45 381.65
  C 477.91 386.04 469.91 392.10 469.89 397.49
  Q 469.83 415.40 468.82 427.83
  Q 467.68 441.84 467.68 450.72
  C 467.67 460.84 465.85 474.85 465.78 487.00
  Q 465.73 496.67 465.50 499.51
  Q 463.77 520.41 463.77 536.72
  Q 463.78 546.57 462.72 559.26
  Q 461.77 570.57 461.70 588.31
  C 461.66 597.97 460.12 611.07 460.02 621.01
  Q 459.81 642.72 458.57 661.20
  C 458.00 669.66 457.85 678.52 457.78 687.39
  C 457.72 696.00 455.82 708.93 455.84 717.77
  Q 455.88 730.09 455.09 738.31
  Q 453.74 752.47 453.86 756.23
  Q 453.99 760.10 453.61 770.92
  C 453.20 782.49 451.93 794.20 451.88 804.69
  Q 451.84 813.20 451.00 823.78
  Q 449.86 838.03 449.62 856.64
  C 449.59 859.62 448.98 862.25 449.15 865.08
  Q 449.28 867.31 448.95 871.41
  Q 447.81 885.32 447.84 895.75
  Q 447.90 911.92 447.02 922.44
  C 446.59 927.57 447.13 932.00 447.05 936.65
  A 1.09 1.09 0.0 0 0 448.76 937.56
  Q 450.16 936.59 450.65 935.17
  C 454.17 924.94 458.53 914.87 462.26 905.10
  Q 477.48 865.17 492.39 826.93
  Q 493.17 824.93 508.17 785.40
  Q 511.50 776.62 530.74 725.42
  Q 549.21 676.26 558.50 650.25
  Q 579.57 591.32 597.62 537.63
  Q 599.48 532.09 608.16 507.16
  Q 611.00 499.01 612.47 487.76
  Q 614.32 473.62 621.42 431.69
  Q 623.30 420.58 624.50 411.74
  C 624.95 408.42 625.95 405.55 626.19 402.26
  Q 626.36 399.95 627.44 395.18
  C 628.17 391.94 628.16 388.71 629.00 385.47
  C 630.03 381.48 630.18 377.38 630.96 373.22
  Q 631.96 367.87 632.26 364.72
  Q 632.46 362.62 633.85 354.94
  Q 634.07 353.74 637.36 333.69
  C 638.09 329.26 638.18 325.18 639.13 321.27
  C 640.13 317.14 640.24 311.95 641.51 307.15
  A 12.43 12.42 54.4 0 0 641.91 304.73
  Q 642.24 299.68 643.57 295.20
  A 9.30 9.23 -34.9 0 0 643.94 293.16
  C 644.25 288.56 645.50 284.75 646.04 279.80
  Q 646.60 274.56 648.43 263.83
  C 648.91 261.03 650.16 258.77 650.22 255.76
  A 0.54 0.54 0.0 0 0 649.43 255.27
  Z
  M 435.55 813.45
  C 436.25 812.09 436.03 809.11 435.96 806.21
  Q 435.93 804.59 436.49 800.34
  Q 437.77 790.67 437.79 788.74
  Q 438.02 771.68 438.56 758.66
  C 438.70 755.14 439.60 751.25 439.72 746.87
  C 439.99 736.25 439.75 727.03 440.71 718.05
  Q 441.94 706.65 442.12 678.50
  C 442.18 669.73 443.82 658.46 443.88 648.82
  Q 443.99 631.47 444.26 622.50
  C 444.55 612.74 445.83 603.48 445.91 593.49
  C 446.04 576.44 448.03 559.49 447.90 541.32
  Q 447.86 535.50 448.84 523.18
  Q 449.72 512.10 449.80 504.26
  Q 450.01 483.28 450.46 478.26
  Q 451.76 463.46 451.86 454.44
  C 452.06 434.96 452.80 426.79 453.80 404.60
  C 453.98 400.56 454.52 398.13 450.90 395.38
  Q 445.63 391.38 441.79 387.91
  C 439.61 385.94 436.71 384.17 434.56 382.44
  Q 423.05 373.24 418.27 369.24
  Q 417.63 368.71 401.91 356.19
  Q 366.42 327.93 354.31 318.03
  Q 338.89 305.42 336.13 303.38
  Q 334.82 302.41 328.65 297.12
  Q 327.59 296.21 326.89 296.00
  A 1.09 1.09 0.0 0 0 325.52 297.33
  L 326.67 301.64
  A 5.44 5.34 38.1 0 1 326.85 303.02
  Q 326.87 311.33 328.14 319.32
  C 329.41 327.34 328.74 334.98 329.77 343.08
  Q 331.00 352.75 331.09 364.50
  Q 331.11 367.10 331.51 369.97
  C 332.24 375.15 332.78 378.63 332.87 383.61
  C 333.02 391.52 333.13 397.34 334.10 404.76
  C 335.03 411.86 334.89 415.94 335.13 426.36
  C 335.31 433.97 336.93 441.77 336.91 449.01
  Q 336.86 462.02 337.90 470.72
  C 338.73 477.61 338.90 484.95 338.92 489.11
  C 338.95 498.15 340.74 510.87 340.83 519.31
  C 340.95 529.84 342.70 541.67 342.84 552.82
  Q 342.90 557.90 343.45 563.66
  C 344.12 570.55 343.93 579.06 346.83 586.68
  Q 361.74 625.84 377.18 664.53
  C 384.14 681.95 395.87 712.70 404.68 735.28
  Q 420.60 776.05 423.94 783.43
  C 426.66 789.45 428.34 795.60 430.84 800.83
  C 432.61 804.56 434.06 810.32 434.90 813.38
  A 0.35 0.35 0.0 0 0 435.55 813.45
  Z
  M 839.63 387.01
  Q 829.32 406.90 814.90 435.88
  C 807.05 451.66 802.10 461.33 796.46 472.77
  Q 769.63 527.22 757.86 550.56
  Q 751.69 562.81 748.31 569.97
  Q 743.00 581.27 738.70 589.37
  C 736.24 594.01 734.19 599.28 731.99 603.74
  Q 731.27 605.20 731.57 606.81
  A 0.75 0.74 -7.6 0 0 732.37 607.42
  Q 735.41 607.15 739.01 606.25
  Q 775.30 597.11 791.02 593.55
  Q 810.80 589.07 835.16 582.64
  Q 868.34 573.88 879.29 571.67
  Q 881.37 571.25 882.47 571.03
  A 1.79 1.78 78.8 0 0 883.88 568.92
  C 883.06 564.82 882.29 560.66 881.25 556.74
  Q 873.66 528.16 866.03 493.74
  C 862.89 479.62 858.40 463.13 855.36 449.76
  Q 850.37 427.74 846.56 412.48
  Q 845.11 406.68 843.86 399.85
  Q 843.85 399.82 841.16 387.21
  A 0.82 0.82 0.0 0 0 839.63 387.01
  Z
  M 719.41 596.38
  C 720.39 595.35 721.50 591.68 722.19 590.37
  Q 728.20 578.97 733.15 568.90
  Q 753.28 528.01 761.48 511.15
  C 765.61 502.64 770.70 493.39 774.87 483.94
  C 777.39 478.26 781.19 471.62 783.45 466.99
  Q 797.84 437.55 812.90 407.64
  Q 813.91 405.62 814.87 402.67
  A 3.47 3.39 -20.4 0 1 815.22 401.93
  L 820.82 393.08
  A 0.46 0.45 -79.9 0 0 820.34 392.39
  Q 818.73 392.73 817.08 393.84
  Q 814.61 395.49 808.60 399.08
  Q 790.15 410.12 766.10 424.10
  Q 760.49 427.37 756.71 429.66
  Q 744.56 437.05 680.26 474.24
  Q 657.47 487.42 638.88 497.64
  A 1.25 1.24 -31.8 0 0 638.45 499.44
  Q 641.67 504.10 645.29 508.16
  C 651.20 514.79 656.47 522.10 661.87 528.40
  C 670.93 538.96 682.48 553.73 688.78 560.76
  Q 698.63 571.77 708.83 584.67
  Q 711.72 588.34 713.82 590.58
  Q 718.66 595.77 718.81 596.24
  A 0.36 0.36 0.0 0 0 719.41 596.38
  Z
  M 127.31 409.47
  A 0.87 0.87 0.0 0 0 126.17 410.54
  Q 126.96 413.11 127.66 414.33
  Q 143.14 441.40 146.64 447.83
  C 151.11 456.05 156.23 464.38 160.13 471.36
  Q 178.08 503.44 182.59 511.18
  C 188.81 521.86 194.11 532.31 199.75 542.33
  Q 205.46 552.48 210.23 561.36
  A 0.82 0.81 48.7 0 0 211.61 561.45
  L 269.51 480.80
  A 1.71 1.69 37.6 0 0 269.20 478.49
  C 266.77 476.49 263.13 475.63 260.60 474.36
  Q 227.82 457.92 179.44 434.83
  Q 167.46 429.12 138.35 415.35
  C 134.77 413.66 130.82 410.78 127.31 409.47
  Z
  M 199.74 572.31
  C 191.44 558.05 185.53 546.30 177.72 533.16
  Q 176.70 531.44 167.84 515.26
  C 153.39 488.88 138.15 462.46 125.20 439.67
  C 122.99 435.78 119.37 431.06 118.63 427.45
  A 1.35 1.35 0.0 0 0 116.10 427.13
  C 115.10 429.16 114.98 432.22 114.31 434.58
  C 104.95 467.73 92.90 513.39 81.46 553.95
  Q 80.22 558.35 79.58 561.77
  Q 79.22 563.64 79.71 564.98
  A 1.15 1.15 0.0 0 0 80.77 565.75
  C 90.31 566.06 98.90 567.19 108.44 567.40
  C 119.41 567.65 129.08 569.19 139.98 569.37
  C 146.56 569.48 155.60 571.32 163.57 571.42
  Q 170.99 571.52 171.77 571.61
  Q 186.42 573.25 198.93 573.66
  A 0.90 0.90 0.0 0 0 199.74 572.31
  Z
  M 432.51 913.88
  C 434.01 911.83 433.19 905.33 433.26 903.00
  Q 433.98 878.98 434.27 856.74
  Q 434.38 848.50 430.70 839.31
  Q 417.61 806.67 385.86 726.19
  C 380.23 711.92 374.93 696.66 369.53 683.50
  C 365.04 672.55 361.72 662.76 356.70 650.39
  C 350.18 634.28 341.09 610.56 336.36 598.43
  Q 328.30 577.77 326.15 573.08
  C 321.69 563.35 316.13 554.32 312.32 546.43
  C 310.29 542.23 306.49 537.43 304.61 533.89
  Q 297.81 521.06 290.07 507.70
  Q 285.81 500.36 282.78 492.60
  A 1.50 1.50 0.0 0 0 280.31 492.10
  Q 279.25 493.19 278.71 493.96
  C 272.83 502.41 264.81 512.83 258.06 522.52
  C 252.30 530.80 245.45 539.17 241.12 545.60
  C 237.12 551.55 230.82 559.98 225.26 568.24
  Q 223.82 570.37 220.25 574.89
  A 1.60 1.60 0.0 0 0 220.07 576.58
  Q 221.94 580.37 224.17 583.84
  C 232.41 596.69 239.96 609.52 248.48 622.48
  Q 251.15 626.55 257.35 636.46
  Q 260.24 641.07 281.57 675.36
  Q 295.21 697.29 309.15 719.30
  Q 310.37 721.22 319.23 735.28
  Q 360.24 800.34 416.18 888.86
  Q 418.73 892.88 421.86 898.16
  C 425.07 903.56 427.98 907.79 431.22 913.80
  A 0.77 0.76 -41.4 0 0 432.51 913.88
  Z
  M 624.65 509.80
  Q 623.75 510.40 623.39 511.62
  Q 620.09 522.78 616.35 533.69
  Q 597.21 589.42 569.15 666.21
  Q 547.14 726.45 533.88 760.67
  C 528.55 774.43 523.28 789.82 517.51 804.37
  Q 491.42 870.08 464.58 940.44
  C 463.86 942.33 462.44 945.04 461.72 947.08
  A 2.92 2.92 0.0 0 0 462.51 950.23
  L 487.66 972.96
  A 1.54 1.53 39.6 0 0 489.92 972.75
  Q 496.41 964.19 503.29 953.54
  Q 515.87 934.02 535.92 903.26
  C 540.77 895.83 544.48 889.28 548.38 883.49
  Q 552.65 877.15 557.77 868.71
  C 568.44 851.11 585.18 825.10 599.66 801.50
  C 606.31 790.68 615.49 776.94 623.03 764.22
  Q 626.42 758.51 630.52 752.03
  Q 657.25 709.86 708.63 626.05
  C 710.06 623.71 711.80 621.61 712.94 619.63
  Q 714.99 616.06 711.97 613.03
  C 707.20 608.24 702.10 601.19 696.05 594.58
  Q 694.02 592.36 692.98 591.08
  Q 679.92 575.11 669.65 563.41
  C 664.77 557.84 659.76 551.18 654.53 545.18
  Q 648.35 538.09 646.46 535.77
  Q 636.81 523.96 625.37 509.91
  A 0.54 0.54 0.0 0 0 624.65 509.80
  Z
  M 427.56 937.26
  A 0.80 0.80 0.0 0 0 428.37 936.06
  C 421.11 923.74 411.91 910.83 405.83 900.84
  C 395.17 883.32 383.91 866.91 371.39 847.11
  Q 347.50 809.34 339.45 796.70
  Q 321.63 768.73 311.53 752.44
  Q 291.36 719.92 283.77 708.03
  C 270.47 687.20 261.36 671.84 249.15 653.08
  Q 239.88 638.82 224.12 613.49
  Q 214.63 598.24 210.69 592.46
  A 3.30 3.28 -17.9 0 0 207.88 591.03
  Q 197.23 591.36 187.78 590.20
  Q 180.66 589.32 174.18 589.09
  Q 163.63 588.71 160.54 588.21
  C 153.15 587.02 146.98 587.42 139.26 586.47
  C 129.38 585.24 118.48 585.16 107.98 583.77
  Q 105.06 583.38 100.52 583.25
  C 95.40 583.10 93.27 583.06 90.10 582.15
  A 0.77 0.77 0.0 0 0 89.22 583.27
  C 93.20 590.20 97.95 597.02 101.75 603.68
  C 113.45 624.21 123.78 641.61 135.09 662.39
  C 145.07 680.73 156.62 700.96 165.92 717.97
  Q 190.65 763.24 200.32 780.43
  C 211.03 799.47 218.45 813.83 229.30 833.20
  Q 238.60 849.80 259.06 887.09
  C 263.82 895.76 270.52 907.46 276.88 919.62
  C 278.71 923.13 281.67 928.97 284.79 929.72
  C 290.26 931.03 293.07 930.96 301.42 931.47
  C 309.42 931.95 318.45 931.46 325.25 932.08
  Q 344.51 933.84 361.50 933.85
  C 372.37 933.85 385.52 935.66 397.66 935.70
  Q 406.81 935.72 414.50 936.04
  Q 420.64 936.29 427.56 937.26
  Z
  M 510.41 969.86
  A 0.25 0.25 0.0 0 0 510.74 970.18
  C 515.07 968.54 520.11 967.69 524.17 966.30
  Q 537.34 961.78 553.44 957.09
  C 564.46 953.87 576.41 949.87 588.27 945.99
  Q 594.44 943.97 597.01 942.02
  Q 601.03 938.99 607.35 931.60
  Q 613.82 924.04 619.94 917.10
  Q 622.15 914.60 623.22 913.08
  C 625.76 909.43 629.01 906.38 631.58 903.08
  C 637.20 895.85 644.02 887.83 650.67 878.90
  Q 661.22 864.75 670.72 853.05
  C 676.65 845.76 682.05 838.58 689.35 829.37
  Q 704.56 810.21 713.42 798.42
  Q 722.22 786.72 726.28 781.73
  Q 728.90 778.50 739.14 765.05
  C 745.87 756.22 758.12 741.09 766.49 729.74
  C 768.05 727.63 770.39 725.30 772.00 722.95
  Q 775.96 717.20 795.58 691.59
  Q 806.84 676.90 834.66 639.87
  Q 836.23 637.79 837.65 635.90
  Q 849.06 620.67 864.74 600.17
  C 867.83 596.11 870.06 593.90 873.57 590.20
  A 0.44 0.43 -54.1 0 0 873.46 589.51
  Q 872.51 589.03 871.43 589.42
  Q 862.88 592.47 854.29 594.38
  C 847.23 595.95 841.84 597.59 834.21 599.48
  Q 819.81 603.06 805.10 606.70
  C 799.36 608.12 794.68 610.11 789.50 610.79
  Q 784.15 611.48 778.69 612.88
  Q 756.24 618.64 743.47 621.72
  C 738.62 622.89 733.72 623.28 728.70 625.04
  A 5.59 5.56 4.6 0 0 725.62 627.65
  Q 723.71 631.16 720.28 636.57
  Q 688.21 687.25 686.94 689.38
  Q 684.94 692.72 683.63 694.91
  Q 673.23 712.26 657.72 736.58
  Q 653.52 743.16 652.98 744.09
  C 649.03 750.94 645.47 755.71 641.20 762.83
  Q 638.39 767.51 622.29 793.00
  C 610.96 810.93 598.28 831.97 587.34 849.06
  Q 568.54 878.44 566.80 881.10
  Q 565.25 883.47 558.33 894.63
  Q 553.45 902.49 549.77 908.09
  C 545.61 914.40 541.80 921.25 537.72 927.32
  Q 528.69 940.72 518.55 956.77
  Q 510.57 969.38 510.41 969.86
  Z
  M 645.00 907.43
  Q 645.34 907.42 646.04 907.03
  C 651.72 903.84 656.40 898.50 661.87 895.27
  Q 668.35 891.46 695.13 870.63
  Q 731.81 842.09 734.44 839.93
  Q 740.69 834.78 744.38 831.36
  Q 747.79 828.19 748.35 823.31
  C 749.20 815.91 749.28 811.08 750.32 803.50
  Q 750.89 799.35 751.55 790.12
  C 751.92 784.91 753.69 780.62 752.89 775.34
  A 0.51 0.51 0.0 0 0 752.01 775.07
  C 749.01 778.34 747.05 781.83 744.31 785.33
  Q 732.89 799.93 722.64 812.64
  Q 697.19 844.21 693.98 848.30
  Q 692.39 850.32 686.97 856.66
  Q 684.55 859.48 680.18 865.21
  Q 676.48 870.06 669.82 877.84
  Q 661.26 887.84 653.26 897.52
  Q 649.60 901.95 644.77 906.89
  A 0.32 0.32 0.0 0 0 645.00 907.43
  Z"
/>
</svg>
